<svg xmlns="http://www.w3.org/2000/svg" xml:space="preserve" style="fill-rule:evenodd;clip-rule:evenodd;stroke-linejoin:round;stroke-miterlimit:2" viewBox="0 0 291 380"><path d="M182.4 392.7c-.8 0-1.3-.2-1.6-.5s-.5-.8-.5-1.3v-.5c0-.2 0-.4.2-.7h6.5c.8 0 1.3.2 1.6.5s.5.8.5 1.3v.5c0 .2 0 .5-.2.7zm-45.5 6c-.2.2-.5.5-.9.8s-.8.5-1.3.7-1.1.4-1.8.5-1.4.2-2.3.2-2-.2-2.9-.5-1.7-.8-2.3-1.4q-.9-.9-1.5-2.4c-.4-1-.5-2.1-.5-3.4s.3-3.5.8-5c.6-1.5 1.3-2.8 2.3-3.9s2.1-1.9 3.3-2.6c1.3-.6 2.6-.9 4-.9s3 .4 3.9 1.3 1.4 2 1.4 3.4-.3 2.4-1 3.3c-.6.9-1.5 1.6-2.5 2.2s-2.1 1-3.4 1.2c-1.2.3-2.4.4-3.6.4h-2v.5c0 1.7.4 2.9 1.2 3.8.8.8 1.8 1.3 3.1 1.3s2-.2 2.9-.7c.9-.4 1.6-1.1 2.3-1.9l.5.4q.45.3.6.6c.1.2.2.5.2.8 0 .4-.2.9-.7 1.4zm-8.6-8.4q1.65 0 3-.3t2.4-.9c.7-.4 1.2-.9 1.6-1.4.4-.6.6-1.2.6-1.9s-.2-1.2-.5-1.6-1-.7-1.8-.7-1.6.2-2.2.5c-.7.3-1.3.8-1.9 1.4s-1 1.3-1.4 2.1q-.6 1.2-.9 2.7h1.2zm20.4 13.5c-.4.8-.8 1.6-1.2 2.2-.4.7-.8 1.3-1.3 1.8s-1 .9-1.6 1.2-1.3.4-2.2.4h-1.1c-.4 0-.8-.2-1.2-.3-.4-.2-.7-.4-.9-.7-.3-.3-.4-.7-.4-1.1q0-.6.6-1.2l.5-.5c.3.5.7.8 1.1 1s.9.3 1.3.3c.8 0 1.4-.3 1.9-.9s1.1-1.6 1.8-3.1l1.1-2.2h-.7l-3.2-19 .9-.3h.8c.8 0 1.4.3 1.6.8.3.5.5 1.2.6 2l1.7 13 6.2-13.3q.6-1.2 1.2-1.8c.4-.4 1-.6 1.7-.6s1.2.1 1.6.4l-10.9 22.2zm25.6-5.1c-.2.2-.5.5-.9.8s-.8.5-1.3.7-1.1.4-1.8.5-1.4.2-2.3.2-2-.2-2.9-.5-1.7-.8-2.3-1.4q-.9-.9-1.5-2.4c-.4-1-.5-2.1-.5-3.4s.3-3.5.8-5c.6-1.5 1.3-2.8 2.3-3.9s2.1-1.9 3.3-2.6c1.3-.6 2.6-.9 4-.9s3 .4 3.9 1.3 1.4 2 1.4 3.4-.3 2.4-1 3.3c-.6.9-1.5 1.6-2.5 2.2s-2.1 1-3.4 1.2c-1.2.3-2.4.4-3.6.4h-2v.5c0 1.7.4 2.9 1.2 3.8.8.8 1.8 1.3 3.1 1.3s2-.2 2.9-.7c.9-.4 1.6-1.1 2.3-1.9l.5.4q.45.3.6.6c.1.2.2.5.2.8 0 .4-.2.9-.7 1.4zm-8.7-8.4q1.65 0 3-.3t2.4-.9c.7-.4 1.2-.9 1.6-1.4.4-.6.6-1.2.6-1.9s-.2-1.2-.5-1.6-1-.7-1.8-.7-1.6.2-2.2.5c-.7.3-1.3.8-1.9 1.4s-1 1.3-1.4 2.1q-.6 1.2-.9 2.7h1.1zm34.8 10.6c-1.3 0-2.3-.2-3.2-.7q-1.35-.6-2.1-1.8c-.5-.7-.9-1.6-1.2-2.5-.2-.9-.4-1.9-.4-2.8 0-1.5.2-3.1.7-4.5.4-1.5 1.1-2.8 1.9-4 .9-1.2 1.9-2.1 3.2-2.8s2.7-1.1 4.3-1.1 2.3.2 3.2.7q1.35.6 2.1 1.8c.5.7.9 1.6 1.2 2.5.2.9.4 1.9.4 2.8q0 2.25-.6 4.5c-.4 1.5-1 2.8-1.9 4-.8 1.2-1.9 2.1-3.1 2.8-1.3.7-2.7 1.1-4.4 1.1zm-3.3-7.7c0 .7 0 1.3.2 1.9.1.6.4 1.1.7 1.6.3.4.7.8 1.1 1.1.5.3 1 .4 1.6.4.9 0 1.7-.2 2.5-.7s1.4-1.2 2-2c.5-.9 1-1.9 1.3-3.1s.5-2.5.5-3.8 0-1.3-.2-1.9c-.1-.6-.4-1.1-.7-1.6-.3-.4-.7-.8-1.1-1.1-.5-.3-1-.4-1.7-.4s-1.7.2-2.5.8c-.7.5-1.4 1.2-1.9 2-.6.9-1 1.9-1.3 3.1s-.4 2.5-.4 3.8zm22.3-9.6c.7-.8 1.5-1.5 2.5-2s2-.8 3-.8 2 .2 2.7.6 1.4 1 1.8 1.6c.5.7.8 1.5 1 2.4q.3 1.35.3 3c0 1.6-.3 3.2-.8 4.7s-1.2 2.8-2.1 4c-.9 1.1-2 2-3.2 2.7s-2.6 1-4.1 1-1.3 0-2-.2c-.7-.1-1.3-.4-1.8-.7l-1.5 9.1h-3.4l4.6-27.8h.7q2.1 0 2.1 2.1v.3zm.8 14.6c.9 0 1.8-.2 2.7-.7.8-.5 1.6-1.2 2.2-2.1s1.1-1.9 1.5-3.2c.4-1.2.6-2.5.6-4s-.3-2.6-.8-3.4q-.75-1.2-2.7-1.2c-1.3 0-.9.1-1.4.3q-.75.3-1.5.9c-.5.4-.9.9-1.3 1.5s-.6 1.3-.7 2.1l-1.5 9c.3.2.7.4 1.2.5.4.1 1 .2 1.8.2zm27.9.5c-.2.2-.5.5-.9.8s-.8.5-1.3.7-1.1.4-1.8.5-1.4.2-2.3.2-2-.2-2.9-.5-1.7-.8-2.3-1.4q-.9-.9-1.5-2.4c-.4-1-.5-2.1-.5-3.4s.3-3.5.8-5c.6-1.5 1.3-2.8 2.3-3.9s2.1-1.9 3.3-2.6c1.3-.6 2.6-.9 4-.9s3 .4 3.9 1.3 1.4 2 1.4 3.4-.3 2.4-1 3.3c-.6.9-1.5 1.6-2.5 2.2s-2.1 1-3.4 1.2c-1.2.3-2.4.4-3.6.4h-2v.5c0 1.7.4 2.9 1.2 3.8.8.8 1.8 1.3 3.1 1.3s2-.2 2.9-.7c.9-.4 1.6-1.1 2.3-1.9l.5.4q.45.3.6.6c.1.2.2.5.2.8 0 .4-.2.9-.7 1.4zm-8.6-8.4q1.65 0 3-.3t2.4-.9c.7-.4 1.2-.9 1.6-1.4.4-.6.6-1.2.6-1.9s-.2-1.2-.5-1.6-1-.7-1.8-.7-1.6.2-2.2.5c-.7.3-1.3.8-1.9 1.4s-1 1.3-1.4 2.1q-.6 1.2-.9 2.7h1.1zm25.5 10 1.9-11.2c0-.4.1-.7.2-1.2v-1.2q0-1.2-.6-2.1t-2.1-.9c-1 0-1.2 0-1.8.3-.6.2-1.2.5-1.7.9s-1 .9-1.4 1.5-.6 1.3-.8 2.2l-1.9 11.6h-3.4l3.2-19.1h.7q2.1 0 2.1 2.1v.4c.7-.8 1.6-1.5 2.6-2 1-.6 2.2-.8 3.5-.8s1.7.1 2.3.4 1.2.7 1.6 1.2.7 1.1.9 1.7.3 1.3.3 2v1.5c0 .5-.1 1-.2 1.4l-1.9 11.2H265zm16.1-.3c-.3.2-.7.3-1.2.4s-.9.2-1.2.2c-1.1 0-2-.3-2.5-.9s-.8-1.3-.7-2.3v-.9l2.6-15.4h.7c.8 0 1.4.2 1.7.7.4.5.5 1 .5 1.7v1l-2 11.9v.8c0 .4 0 .7.2.9q.3.3.9.3c.4 0 .5 0 .8-.1l.3 1.6zm-.2-23c-.6 0-1.1-.2-1.4-.6s-.5-.9-.5-1.4.2-1.3.6-1.9c.4-.5 1-.8 1.8-.8s1.1.2 1.4.6.5.9.5 1.5-.2 1.3-.7 1.8c-.4.5-1 .8-1.8.8zm16.5 23.3 1.9-11.2c0-.4.1-.7.2-1.2v-1.2q0-1.2-.6-2.1t-2.1-.9c-1 0-1.2 0-1.8.3-.6.2-1.2.5-1.7.9s-1 .9-1.4 1.5-.6 1.3-.8 2.2l-1.9 11.6h-3.4l3.2-19.1h.7q2.1 0 2.1 2.1v.4c.7-.8 1.6-1.5 2.6-2 1-.6 2.2-.8 3.5-.8s1.7.1 2.3.4 1.2.7 1.6 1.2.7 1.1.9 1.7.3 1.3.3 2v1.5c0 .5-.1 1-.2 1.4l-1.9 11.2h-3.5zm14.5 6.4c1.8 0 3.2-.6 4.1-1.8 1-1.2 1.6-2.8 2-4.9l.3-1.9c-.7.8-1.5 1.4-2.4 1.9s-1.9.7-3 .7-2-.2-2.8-.5q-1.2-.6-1.8-1.5c-.5-.6-.8-1.4-1-2.3s-.3-1.9-.3-2.9.3-3 .8-4.5 1.2-2.8 2.1-4 2-2.2 3.3-2.9c1.3-.8 2.8-1.1 4.4-1.1s2.6.2 3.7.6 2.1.9 2.8 1.4l-2.8 16.8c-1.1 6.5-4.3 9.8-9.6 9.8s-2.2-.2-3.3-.5-1.9-.8-2.4-1.3c-.4-.4-.6-.9-.6-1.4s.2-.9.6-1.3l.7-.6c.7.8 1.4 1.4 2.2 1.8s1.8.6 2.9.6zm5.5-23.2c-.9 0-1.8.3-2.6.8s-1.5 1.2-2.2 2.2c-.6.9-1.1 2-1.5 3.2s-.5 2.5-.5 3.8.3 2.6.8 3.3c.6.7 1.4 1.1 2.7 1.1s1 0 1.5-.3q.75-.3 1.5-.9t1.2-1.5c.4-.6.6-1.4.7-2.2l1.5-8.7c-.5-.3-.9-.5-1.4-.6-.5 0-1.1-.1-1.7-.1zM50.2 351.9c1.5 0 2.9 0 4.1-.3 1.2-.2 2.2-.5 3.1-1 .8-.5 1.5-1.2 1.9-2.1s.7-2 .7-3.4q0-3.6-2.4-5.1c-1.6-1-3.7-1.5-6.2-1.5h-4.9v13.4h3.8zm7.7-26.6c0-2.1-.7-3.5-2.2-4.3s-3.4-1.2-5.9-1.2h-2.1c-.5 0-1 0-1.3.1v12.4h4.4c2.2 0 3.9-.7 5.2-2s1.9-3 1.9-5.1m11.4 20.2c0 2.6-.4 4.7-1.3 6.4s-2.1 3-3.7 4-3.6 1.7-5.8 2.1c-2.3.4-4.8.6-7.6.6H37.4v-44.3c2.3-.2 4.4-.4 6.4-.5s4-.2 5.8-.2c3.3 0 6.1.3 8.4.8s4.1 1.3 5.4 2.2c1.4 1 2.3 2.2 2.9 3.6q.9 2.1.9 4.8c0 1.8-.2 2.8-.6 3.9s-1 2.1-1.6 2.9c-.7.8-1.4 1.5-2.2 2.1-.8.5-1.6.9-2.3 1.2.8.2 1.7.5 2.7 1 1 .4 2 1 2.9 1.8s1.6 1.8 2.3 3.1c.6 1.3.9 2.8.9 4.6m13.4 13.4c-.2 0-.6.2-1.2.2h-2c-.7 0-1.7 0-2.4-.2s-1.3-.4-1.8-.9c-.5-.4-.9-1-1.2-1.7s-.4-1.6-.4-2.7v-26.7s.3 0 1-.2h2.1c.7 0 1.4 0 2.1.2.7.1 1.4.4 1.9.8.6.4 1 .9 1.4 1.6s.5 1.6.5 2.7zm.1-42.6c0 1.4-.5 2.6-1.4 3.5-1 .9-2.1 1.3-3.4 1.3s-2.5-.5-3.5-1.3c-.9-.9-1.4-2-1.4-3.5s.5-2.6 1.4-3.5 2.1-1.4 3.5-1.4 2.5.5 3.4 1.4c1 .9 1.4 2.1 1.4 3.5m14.1 26c0 3.1.5 5.6 1.4 7.4s2.7 2.7 5.3 2.7 2.8-.3 3.7-.9 1.3-1.4 1.3-2.4v-14.3c-.4-.4-1-.8-1.8-1.3-.9-.5-1.9-.7-3-.7-4.5 0-6.8 3.2-6.8 9.5m20.2 13.7c0 2.6-.3 5-.8 7.2s-1.4 4-2.7 5.6-2.9 2.8-5 3.6-4.7 1.3-7.9 1.3-4.9-.2-6.6-.6-3.1-.9-4.1-1.5c-.9-.5-1.5-1-1.7-1.5s-.4-1-.4-1.5c0-.7.3-1.5.9-2.5s1.2-1.8 1.7-2.6c.3.3.7.7 1.3 1.1s1.2.8 2 1.2 1.7.7 2.7 1 2.1.4 3.3.4c1.7 0 3.1-.2 4.2-.7s1.9-1.1 2.6-2c.6-.9 1.1-1.9 1.3-3.2.2-1.2.4-2.7.4-4.3v-1.2q-.9 1.2-3 2.1c-1.4.6-3.1 1-5.2 1s-3.2-.3-4.8-.8c-1.5-.5-2.9-1.4-4.1-2.6s-2.2-2.9-2.9-4.9-1.1-4.5-1.1-7.6.4-5.7 1.1-7.8 1.7-3.9 2.9-5.2c1.2-1.4 2.6-2.3 4.2-2.9s3.2-.9 5-.9 3.6.3 4.9 1 2.3 1.5 3 2.5c.4-1 1-1.8 2-2.2s2.1-.7 3.4-.7h2.2c.4 0 .7 0 1 .1V356zm19.4-4.1c1.5 0 2.9 0 4.1-.3 1.2-.2 2.2-.5 3.1-1s1.5-1.2 1.9-2.1.7-2 .7-3.4q0-3.6-2.4-5.1c-1.6-1-3.7-1.5-6.2-1.5h-4.9v13.4h3.8zm7.7-26.6c0-2.1-.7-3.5-2.2-4.3s-3.4-1.2-5.9-1.2h-2.1c-.5 0-1 0-1.3.1v12.4h4.4c2.2 0 3.9-.7 5.2-2s1.9-3 1.9-5.1m11.4 20.2c0 2.6-.4 4.7-1.3 6.4s-2.1 3-3.7 4-3.6 1.7-5.8 2.1c-2.3.4-4.8.6-7.6.6h-13.5v-44.3c2.3-.2 4.4-.4 6.4-.5s4-.2 5.8-.2c3.3 0 6.1.3 8.4.8s4.1 1.3 5.4 2.2c1.4 1 2.3 2.2 2.9 3.6q.9 2.1.9 4.8c0 1.8-.2 2.8-.6 3.9s-1 2.1-1.6 2.9c-.7.8-1.4 1.5-2.2 2.1-.8.5-1.6.9-2.3 1.2.8.2 1.7.5 2.7 1 1 .4 2 1 2.9 1.8s1.6 1.8 2.3 3.1c.6 1.3.9 2.8.9 4.6m13-15.5c.3-.4.6-.8 1.1-1.3.4-.5 1-.9 1.6-1.3s1.4-.7 2.1-1c.8-.3 1.6-.4 2.5-.4s1.1 0 1.7.1c.6 0 1.2.2 1.7.5.5.2.9.6 1.2 1s.5.9.5 1.6c0 1-.2 2.1-.7 3.3-.5 1.3-1 2.3-1.5 3.2-.8-.6-1.5-1.1-2.3-1.4s-1.6-.5-2.7-.5-2.5.4-3.5 1.2c-.9.8-1.4 1.8-1.4 2.9v20.6h-9.1V327c.2 0 .5 0 .8-.1h2.2c1.4 0 2.7.3 3.7.8s1.7 1.4 2 2.5m34.5 12.4c0-1.2 0-2.4-.3-3.6-.2-1.2-.5-2.2-1-3.1s-1.2-1.6-2-2.2-1.9-.8-3.2-.8-2.4.3-3.2.9c-.9.6-1.6 1.3-2.1 2.2s-.9 1.9-1.1 3.1-.3 2.3-.3 3.5 0 2.4.3 3.6c.2 1.2.5 2.3 1 3.2.5 1 1.2 1.7 2 2.3q1.35.9 3.3.9t3.3-.9c.9-.6 1.6-1.3 2-2.3.5-1 .8-2 1-3.2s.3-2.4.3-3.7m9 0c0 2.2-.3 4.4-.8 6.4q-.9 3-2.7 5.4c-1.3 1.6-2.9 2.8-4.9 3.7s-4.4 1.4-7.3 1.4-5.3-.5-7.2-1.4c-2-.9-3.6-2.1-4.8-3.7-1.2-1.5-2.2-3.3-2.7-5.3-.6-2-.9-4.1-.9-6.4s.3-4.4 1-6.4 1.7-3.8 3-5.3 3-2.7 5-3.6 4.3-1.3 7-1.3 5.2.4 7.2 1.3q3 1.35 4.8 3.6c1.2 1.5 2.1 3.3 2.7 5.3s.8 4.1.8 6.3m5.2 11.2c-.3-.9-.5-1.8-.6-2.8 0-1-.1-2-.1-2.9v-30.9c.3 0 .6 0 1-.1.3 0 .6 0 1-.1h1.1c.7 0 1.4 0 2.1.2.7.1 1.4.4 1.9.8.6.4 1 .9 1.4 1.6s.5 1.6.5 2.7v4.7h9.3v6.8h-9.3v14.2c0 3.1 1.3 4.7 3.8 4.7s1.2 0 1.8-.3c.6-.2 1.1-.4 1.5-.7.4-.2.8-.5 1.2-.8.3-.3.6-.5.7-.6.7 1 1.2 1.8 1.5 2.5.4.7.5 1.4.5 2s-.2 1.2-.7 1.7c-.5.6-1.1 1.1-2 1.5-.8.5-1.9.9-3.1 1.1-1.2.3-2.5.4-3.9.4-2.8 0-4.9-.5-6.4-1.6s-2.6-2.5-3.2-4.2m42-13.5v-2.7c0-.8-.2-1.6-.5-2.2s-.8-1.1-1.4-1.4-1.5-.5-2.7-.5c-1.6 0-3.1.3-4.2 1-1.2.7-1.8 1.5-1.8 2.6v21.6h-9.1v-47s.3 0 1-.2h2.1c.7 0 1.4 0 2.1.2.7.1 1.4.4 1.9.8.6.4 1 .9 1.4 1.6s.5 1.6.5 2.7v13.3l1.3-1.3c.5-.4 1.2-.9 1.9-1.2.8-.4 1.6-.7 2.6-.9s2.1-.3 3.4-.3c3.2 0 5.5.6 7 1.9 1.5 1.2 2.5 2.9 2.9 4.9.2 1 .4 2.1.4 3.3s.1 2.4.1 3.5v18.8h-9.1v-18.4zm34.7-.8c0-2.1-.4-3.9-1.2-5.2s-2.3-2-4.5-2-3.3.6-4.4 1.9-1.6 3-1.6 5.3zm-3 13.5c1.1 0 2.1-.1 2.9-.4.8-.2 1.6-.5 2.3-.9s1.2-.7 1.7-1.2c.5-.4.9-.8 1.3-1.2.5.7 1.1 1.5 1.7 2.6.6 1 .9 1.9.9 2.6 0 1-.6 1.9-1.7 2.7-.9.7-2.3 1.3-4 1.8s-3.7.8-6 .8-4.1-.3-6.2-.8c-2-.5-3.8-1.5-5.4-2.8s-2.9-3.1-3.8-5.4c-1-2.2-1.5-5.1-1.5-8.5s.4-5.2 1.3-7.2 2-3.7 3.5-5c1.4-1.3 3.1-2.3 4.9-2.9s3.7-.9 5.6-.9 4.6.4 6.3 1.2 3.1 1.8 4.2 3.1q1.65 1.95 2.4 4.5c.5 1.7.7 3.5.7 5.3v4.1h-19.7c.2 2.4.9 4.5 2.3 6.1 1.3 1.6 3.5 2.4 6.4 2.4m24.1-22.8c.3-.4.6-.8 1.1-1.3.4-.5 1-.9 1.6-1.3s1.4-.7 2.1-1c.8-.3 1.6-.4 2.5-.4s1.1 0 1.7.1c.6 0 1.2.2 1.7.5.5.2.9.6 1.2 1s.5.9.5 1.6c0 1-.2 2.1-.7 3.3-.5 1.3-1 2.3-1.5 3.2-.7-.6-1.5-1.1-2.3-1.4s-1.6-.5-2.7-.5-2.5.4-3.5 1.2c-.9.8-1.4 1.8-1.4 2.9v20.6h-9.1V327c.2 0 .5 0 .8-.1h2.2c1.4 0 2.7.3 3.7.8s1.7 1.4 2 2.5M207.1 151.8l19.5-9.4c1.1-.5 1.9 0 1.9 1.2v33.7c0 1.2-.8 2.8-1.6 3.6l-2.2 2.1c-.8.8-2 .7-2.6-.4l-16-28.1c-.6-1-.2-2.3.9-2.8m-6.9 63.4-39.2-20.8c-1-.6-1.5-1.9-.9-2.9l3.4-6.8c.5-1.1 1.7-1.3 2.5-.5l34.5 30.6c.9.8.8 1-.3.4m-52-31.7L136.8 171c-.8-.9-1.6-2.5-1.7-3.7l-2.2-16.6c-.2-1.2.4-2.7 1.3-3.5l9.8-8.4c.9-.8 1.8-.4 2 .7l.7 3.7c.2 1.2-.4 2.6-1.3 3.3l-5.1 3.5c-1 .7-1.7 2.2-1.6 3.3l.7 10.6c0 1.2.6 3 1.1 4l7.9 15.1c.6 1 .3 1.2-.4.3m110.7 5.2 11.3-5.1c1.1-.5 1.9 0 1.8 1.3l-.3 4.3c0 1.2-1.1 2-2.3 1.9l-10.4-1.2c-1.2-.1-1.2-.6-.2-1.1m67 35.9-58.5 4.9c-1.2 0-1.4.8-.5 1.5l10 8.3c.9.7 1.4 2.3 1 3.4l-2.2 7.1c-.4 1.1-1.4 2.6-2.4 3.2l-10.7 7.2c-1 .7-2 .3-2.3-.9l-5.7-21.1c-.3-1.1-.6-1.1-.6 0l-1.1 25.1c0 1.2-.9 2.7-1.8 3.4l-5.5 3.8c-1 .7-2.7 1.1-3.9 1.1l-22.1-1.8c-1.2 0-1.7-1-1.2-2.1l18.3-37.1c.5-1.1 1.9-1.8 3.1-1.6l8.7 1.2c1.2.2 3-.1 4.1-.6l20.4-9.2c1.1-.5 2.1-1.8 2.2-3l.6-4.7c.1-1.2-.6-1.7-1.7-1.2l-14.8 6.7c-1.1.5-2.2 0-2.5-1.2l-2.9-9.9c-.3-1.1.3-2.5 1.3-2.9l19.9-9.2c1.1-.5 2-1.9 2.1-3l1.4-18.1c0-1.2.2-2.1.2-2.1s.1-1 .2-2.1l.5-6c0-1.2-.7-1.7-1.7-1.2l-2.2 1.2c-1 .5-2 1.9-2 3.1l-.5 7.1c0 1.2-1 2.5-2.1 3l-9.6 4.1c-1.1.5-1.7 0-1.3-1.2l4.4-13.3c.4-1.1.1-2.8-.6-3.8l-27.8-39.8c-.7-1-2.1-1.4-3.2-1l-11.7 4.7c-1.1.4-2.5 0-3.1-1l-23.2-36.4c-.6-1-2.1-1.6-3.3-1.4l-16 2.8c-1.2.2-1.3-.2-.4-.9l29.8-23.1c.9-.7 2.6-1.5 3.8-1.8l23.2-4.9c1.1-.2 2.5.4 3.1 1.4l25.5 46.5c.6 1 .1 2.3-.9 2.7l-14.2 6.2c-1.1.5-1.4 1.6-.7 2.6l6.8 9.3c.7 1 2.1 1.4 3.2.9l3.9-1.6c1.1-.5 2.8-.3 3.7.4l12.2 8.3c1 .7 1.2.4.5-.5l-9.5-13.3c-.7-1-1-2.7-.7-3.8l2-7.6c.3-1.1 0-2.9-.5-3.9l-24.9-45.9c-.6-1-.9-2.8-.8-4l1-8.3c.1-1.2-.5-2.7-1.5-3.3l-5-3.4c-1-.7-2.5-1.8-3.5-2.5l-5.5-4.1c-.9-.7-2.6-1.6-3.7-2l-7.3-2.9c-1.1-.4-2.9-.7-4.1-.6L151 35.6c-1.2.1-2.7.9-3.5 1.8l-51.4 63.3c-.7.9-1.2 2.6-1 3.8l4.1 26.7c.2 1.2.4 2.1.4 2.1s.2.9.4 2.1l3.8 23.4c.2 1.2.9 2.9 1.5 3.9l8.5 13.1c.6 1 1.1 1.8 1.1 1.8s.5.8 1.1 1.8l1.2 1.8c.6 1 2 2.2 3.1 2.8l2.1 1.1c1 .6 2.7 1.5 3.7 2.1l22.5 13.9c1 .6 2.1 2 2.4 3.2l10.2 33.1c.3 1.1-.2 2.5-1.2 3.1l-76.7 41.9c-1 .6-.9 1 .3 1h242c1.2 0 2.1-1 2.1-2.1v-54.6c0-1.2-1-2.1-2.1-2" style="fill:#003049;fill-rule:nonzero" transform="translate(-37.4 -30.38)"/></svg>