<svg width="225" height="50" viewBox="0 0 225 50" fill="none" xmlns="http://www.w3.org/2000/svg">
  <g clip-path="url(#clip0)">
    <mask id="mask0" style="mask-type:alpha" maskUnits="userSpaceOnUse" x="35" y="0" width="5"
      height="49">
      <path d="M39.4834 0H35.4834V49H39.4834V0Z" fill="white" />
      <path d="M38.5199 1H36.4834V48.7869H38.5199V1Z" fill="black" />
    </mask>
    <g mask="url(#mask0)">
      <path d="M38.5199 1H36.4834V48.7869H38.5199V1Z" fill="#121212" />
      <path d="M38.5199 1H36.4834V48.7869H38.5199V1Z" stroke="#121212" stroke-width="0.4" />
    </g>
    <mask id="mask1" style="mask-type:alpha" maskUnits="userSpaceOnUse" x="53" y="23" width="22"
      height="27">
      <path d="M74.874 23.6914H53.874V49.6914H74.874V23.6914Z" fill="white" />
      <path
        d="M64.3981 24.6914C61.3948 24.6914 59.0087 25.7992 57.3219 27.9723C55.6969 30.0602 54.874 33.0642 54.874 36.8565C54.874 40.6701 55.6969 43.6528 57.3219 45.7407C59.0087 47.8925 61.3948 48.979 64.3981 48.979C67.4631 48.979 69.8698 47.8925 71.536 45.7407C73.161 43.6102 73.9838 40.6275 73.9838 36.8565C73.9838 33.1068 73.161 30.1241 71.536 27.951C69.8492 25.7992 67.4425 24.6914 64.3981 24.6914ZM69.9521 44.4411C68.6767 46.1028 66.8254 46.9337 64.4187 46.9337C62.0119 46.9337 60.1606 46.1028 58.9264 44.4411C57.6099 42.7367 56.9311 40.1801 56.9311 36.8778C56.9311 33.5968 57.6099 31.0403 58.9264 29.2506C60.1606 27.6315 62.0119 26.8006 64.4187 26.8006C66.8254 26.8006 68.6973 27.6315 69.9521 29.2506C71.2891 31.0403 71.9474 33.5968 71.9474 36.8778C71.9474 40.1801 71.2686 42.7367 69.9521 44.4411Z"
        fill="black" />
    </mask>
    <g mask="url(#mask1)">
      <path
        d="M64.3981 24.6914C61.3948 24.6914 59.0087 25.7992 57.3219 27.9723C55.6969 30.0602 54.874 33.0642 54.874 36.8565C54.874 40.6701 55.6969 43.6528 57.3219 45.7407C59.0087 47.8925 61.3948 48.979 64.3981 48.979C67.4631 48.979 69.8698 47.8925 71.536 45.7407C73.161 43.6102 73.9838 40.6275 73.9838 36.8565C73.9838 33.1068 73.161 30.1241 71.536 27.951C69.8492 25.7992 67.4425 24.6914 64.3981 24.6914ZM69.9521 44.4411C68.6767 46.1028 66.8254 46.9337 64.4187 46.9337C62.0119 46.9337 60.1606 46.1028 58.9264 44.4411C57.6099 42.7367 56.9311 40.1801 56.9311 36.8778C56.9311 33.5968 57.6099 31.0403 58.9264 29.2506C60.1606 27.6315 62.0119 26.8006 64.4187 26.8006C66.8254 26.8006 68.6973 27.6315 69.9521 29.2506C71.2891 31.0403 71.9474 33.5968 71.9474 36.8778C71.9474 40.1801 71.2686 42.7367 69.9521 44.4411Z"
        fill="#121212" />
      <path
        d="M64.3981 24.6914C61.3948 24.6914 59.0087 25.7992 57.3219 27.9723C55.6969 30.0602 54.874 33.0642 54.874 36.8565C54.874 40.6701 55.6969 43.6528 57.3219 45.7407C59.0087 47.8925 61.3948 48.979 64.3981 48.979C67.4631 48.979 69.8698 47.8925 71.536 45.7407C73.161 43.6102 73.9838 40.6275 73.9838 36.8565C73.9838 33.1068 73.161 30.1241 71.536 27.951C69.8492 25.7992 67.4425 24.6914 64.3981 24.6914ZM69.9521 44.4411C68.6767 46.1028 66.8254 46.9337 64.4187 46.9337C62.0119 46.9337 60.1606 46.1028 58.9264 44.4411C57.6099 42.7367 56.9311 40.1801 56.9311 36.8778C56.9311 33.5968 57.6099 31.0403 58.9264 29.2506C60.1606 27.6315 62.0119 26.8006 64.4187 26.8006C66.8254 26.8006 68.6973 27.6315 69.9521 29.2506C71.2891 31.0403 71.9474 33.5968 71.9474 36.8778C71.9474 40.1801 71.2686 42.7367 69.9521 44.4411Z"
        stroke="#121212" stroke-width="0.4" />
    </g>
    <mask id="mask2" style="mask-type:alpha" maskUnits="userSpaceOnUse" x="89" y="23" width="22"
      height="27">
      <path d="M110.604 23.6914H89.6035V49.6914H110.604V23.6914Z" fill="white" />
      <path
        d="M100.128 24.6914C97.1243 24.6914 94.7381 25.7992 93.0514 27.9723C91.4263 30.0602 90.6035 33.0642 90.6035 36.8565C90.6035 40.6701 91.4263 43.6528 93.0514 45.7407C94.7381 47.8925 97.1243 48.979 100.128 48.979C103.193 48.979 105.6 47.8925 107.266 45.7407C108.891 43.6102 109.714 40.6275 109.714 36.8565C109.714 33.1068 108.891 30.1241 107.266 27.951C105.579 25.7992 103.172 24.6914 100.128 24.6914ZM105.682 44.4411C104.407 46.1028 102.555 46.9337 100.148 46.9337C97.7414 46.9337 95.8901 46.1028 94.6558 44.4411C93.3393 42.7367 92.6605 40.1801 92.6605 36.8778C92.6605 33.5968 93.3393 31.0403 94.6558 29.2506C95.8901 27.6315 97.7414 26.8006 100.148 26.8006C102.555 26.8006 104.427 27.6315 105.682 29.2506C107.019 31.0403 107.677 33.5968 107.677 36.8778C107.677 40.1801 106.998 42.7367 105.682 44.4411Z"
        fill="black" />
    </mask>
    <g mask="url(#mask2)">
      <path
        d="M100.128 24.6914C97.1243 24.6914 94.7381 25.7992 93.0514 27.9723C91.4263 30.0602 90.6035 33.0642 90.6035 36.8565C90.6035 40.6701 91.4263 43.6528 93.0514 45.7407C94.7381 47.8925 97.1243 48.979 100.128 48.979C103.193 48.979 105.6 47.8925 107.266 45.7407C108.891 43.6102 109.714 40.6275 109.714 36.8565C109.714 33.1068 108.891 30.1241 107.266 27.951C105.579 25.7992 103.172 24.6914 100.128 24.6914ZM105.682 44.4411C104.407 46.1028 102.555 46.9337 100.148 46.9337C97.7414 46.9337 95.8901 46.1028 94.6558 44.4411C93.3393 42.7367 92.6605 40.1801 92.6605 36.8778C92.6605 33.5968 93.3393 31.0403 94.6558 29.2506C95.8901 27.6315 97.7414 26.8006 100.148 26.8006C102.555 26.8006 104.427 27.6315 105.682 29.2506C107.019 31.0403 107.677 33.5968 107.677 36.8778C107.677 40.1801 106.998 42.7367 105.682 44.4411Z"
        fill="#121212" />
      <path
        d="M100.128 24.6914C97.1243 24.6914 94.7381 25.7992 93.0514 27.9723C91.4263 30.0602 90.6035 33.0642 90.6035 36.8565C90.6035 40.6701 91.4263 43.6528 93.0514 45.7407C94.7381 47.8925 97.1243 48.979 100.128 48.979C103.193 48.979 105.6 47.8925 107.266 45.7407C108.891 43.6102 109.714 40.6275 109.714 36.8565C109.714 33.1068 108.891 30.1241 107.266 27.951C105.579 25.7992 103.172 24.6914 100.128 24.6914ZM105.682 44.4411C104.407 46.1028 102.555 46.9337 100.148 46.9337C97.7414 46.9337 95.8901 46.1028 94.6558 44.4411C93.3393 42.7367 92.6605 40.1801 92.6605 36.8778C92.6605 33.5968 93.3393 31.0403 94.6558 29.2506C95.8901 27.6315 97.7414 26.8006 100.148 26.8006C102.555 26.8006 104.427 27.6315 105.682 29.2506C107.019 31.0403 107.677 33.5968 107.677 36.8778C107.677 40.1801 106.998 42.7367 105.682 44.4411Z"
        stroke="#121212" stroke-width="0.4" />
    </g>
    <mask id="mask3" style="mask-type:alpha" maskUnits="userSpaceOnUse" x="168" y="23" width="22"
      height="27">
      <path d="M189.985 23.6914H168.985V49.6914H189.985V23.6914Z" fill="white" />
      <path
        d="M179.509 24.6914C176.506 24.6914 174.119 25.7992 172.433 27.9723C170.808 30.0602 169.985 33.0642 169.985 36.8565C169.985 40.6701 170.808 43.6528 172.433 45.7407C174.119 47.8925 176.506 48.979 179.509 48.979C182.574 48.979 184.981 47.8925 186.647 45.7407C188.272 43.6102 189.095 40.6275 189.095 36.8565C189.095 33.1068 188.272 30.1241 186.647 27.951C184.96 25.7992 182.553 24.6914 179.509 24.6914ZM185.042 44.4411C183.767 46.1028 181.916 46.9337 179.509 46.9337C177.102 46.9337 175.251 46.1028 174.017 44.4411C172.7 42.7367 172.021 40.1801 172.021 36.8778C172.021 33.5968 172.7 31.0403 174.017 29.2506C175.251 27.6315 177.102 26.8006 179.509 26.8006C181.916 26.8006 183.787 27.6315 185.042 29.2506C186.379 31.0403 187.038 33.5968 187.038 36.8778C187.038 40.1801 186.379 42.7367 185.042 44.4411Z"
        fill="black" />
    </mask>
    <g mask="url(#mask3)">
      <path
        d="M179.509 24.6914C176.506 24.6914 174.119 25.7992 172.433 27.9723C170.808 30.0602 169.985 33.0642 169.985 36.8565C169.985 40.6701 170.808 43.6528 172.433 45.7407C174.119 47.8925 176.506 48.979 179.509 48.979C182.574 48.979 184.981 47.8925 186.647 45.7407C188.272 43.6102 189.095 40.6275 189.095 36.8565C189.095 33.1068 188.272 30.1241 186.647 27.951C184.96 25.7992 182.553 24.6914 179.509 24.6914ZM185.042 44.4411C183.767 46.1028 181.916 46.9337 179.509 46.9337C177.102 46.9337 175.251 46.1028 174.017 44.4411C172.7 42.7367 172.021 40.1801 172.021 36.8778C172.021 33.5968 172.7 31.0403 174.017 29.2506C175.251 27.6315 177.102 26.8006 179.509 26.8006C181.916 26.8006 183.787 27.6315 185.042 29.2506C186.379 31.0403 187.038 33.5968 187.038 36.8778C187.038 40.1801 186.379 42.7367 185.042 44.4411Z"
        fill="#121212" />
      <path
        d="M179.509 24.6914C176.506 24.6914 174.119 25.7992 172.433 27.9723C170.808 30.0602 169.985 33.0642 169.985 36.8565C169.985 40.6701 170.808 43.6528 172.433 45.7407C174.119 47.8925 176.506 48.979 179.509 48.979C182.574 48.979 184.981 47.8925 186.647 45.7407C188.272 43.6102 189.095 40.6275 189.095 36.8565C189.095 33.1068 188.272 30.1241 186.647 27.951C184.96 25.7992 182.553 24.6914 179.509 24.6914ZM185.042 44.4411C183.767 46.1028 181.916 46.9337 179.509 46.9337C177.102 46.9337 175.251 46.1028 174.017 44.4411C172.7 42.7367 172.021 40.1801 172.021 36.8778C172.021 33.5968 172.7 31.0403 174.017 29.2506C175.251 27.6315 177.102 26.8006 179.509 26.8006C181.916 26.8006 183.787 27.6315 185.042 29.2506C186.379 31.0403 187.038 33.5968 187.038 36.8778C187.038 40.1801 186.379 42.7367 185.042 44.4411Z"
        stroke="#121212" stroke-width="0.4" />
    </g>
    <mask id="mask4" style="mask-type:alpha" maskUnits="userSpaceOnUse" x="0" y="0" width="21"
      height="50">
      <path d="M21 0H0V50H21V0Z" fill="white" />
      <path
        d="M17.6619 27.972C15.9752 25.7989 13.5684 24.6911 10.524 24.6911C7.52078 24.6911 5.13462 25.7989 3.44786 27.972C3.30387 28.1638 3.15988 28.3555 3.03646 28.5473V1H1V48.787H3.03646V45.1864C3.15988 45.3782 3.30387 45.5699 3.44786 45.7617C5.13462 47.9134 7.52078 49 10.524 49C13.589 49 15.9957 47.9134 17.6619 45.7617C19.287 43.6312 20.1098 40.6485 20.1098 36.8775C20.1304 33.1278 19.287 30.1238 17.6619 27.972ZM16.078 44.4407C14.8027 46.1025 12.9513 46.9334 10.5446 46.9334C8.13789 46.9334 6.28656 46.1025 5.05234 44.4407C3.73585 42.7363 3.05703 40.1798 3.05703 36.8775C3.05703 33.5965 3.73585 31.0399 5.05234 29.2503C6.28656 27.6312 8.13789 26.8003 10.5446 26.8003C12.9513 26.8003 14.8232 27.6312 16.078 29.2503C17.4151 31.0399 18.0733 33.5965 18.0733 36.8775C18.0733 40.1798 17.4151 42.7363 16.078 44.4407Z"
        fill="black" />
    </mask>
    <g mask="url(#mask4)">
      <path
        d="M17.6619 27.972C15.9752 25.7989 13.5684 24.6911 10.524 24.6911C7.52078 24.6911 5.13462 25.7989 3.44786 27.972C3.30387 28.1638 3.15988 28.3555 3.03646 28.5473V1H1V48.787H3.03646V45.1864C3.15988 45.3782 3.30387 45.5699 3.44786 45.7617C5.13462 47.9134 7.52078 49 10.524 49C13.589 49 15.9957 47.9134 17.6619 45.7617C19.287 43.6312 20.1098 40.6485 20.1098 36.8775C20.1304 33.1278 19.287 30.1238 17.6619 27.972ZM16.078 44.4407C14.8027 46.1025 12.9513 46.9334 10.5446 46.9334C8.13789 46.9334 6.28656 46.1025 5.05234 44.4407C3.73585 42.7363 3.05703 40.1798 3.05703 36.8775C3.05703 33.5965 3.73585 31.0399 5.05234 29.2503C6.28656 27.6312 8.13789 26.8003 10.5446 26.8003C12.9513 26.8003 14.8232 27.6312 16.078 29.2503C17.4151 31.0399 18.0733 33.5965 18.0733 36.8775C18.0733 40.1798 17.4151 42.7363 16.078 44.4407Z"
        fill="#121212" />
      <path
        d="M17.6619 27.972C15.9752 25.7989 13.5684 24.6911 10.524 24.6911C7.52078 24.6911 5.13462 25.7989 3.44786 27.972C3.30387 28.1638 3.15988 28.3555 3.03646 28.5473V1H1V48.787H3.03646V45.1864C3.15988 45.3782 3.30387 45.5699 3.44786 45.7617C5.13462 47.9134 7.52078 49 10.524 49C13.589 49 15.9957 47.9134 17.6619 45.7617C19.287 43.6312 20.1098 40.6485 20.1098 36.8775C20.1304 33.1278 19.287 30.1238 17.6619 27.972ZM16.078 44.4407C14.8027 46.1025 12.9513 46.9334 10.5446 46.9334C8.13789 46.9334 6.28656 46.1025 5.05234 44.4407C3.73585 42.7363 3.05703 40.1798 3.05703 36.8775C3.05703 33.5965 3.73585 31.0399 5.05234 29.2503C6.28656 27.6312 8.13789 26.8003 10.5446 26.8003C12.9513 26.8003 14.8232 27.6312 16.078 29.2503C17.4151 31.0399 18.0733 33.5965 18.0733 36.8775C18.0733 40.1798 17.4151 42.7363 16.078 44.4407Z"
        stroke="#121212" stroke-width="0.4" />
    </g>
    <mask id="mask5" style="mask-type:alpha" maskUnits="userSpaceOnUse" x="204" y="23" width="22"
      height="27">
      <path d="M225.489 23.6914H204.489V49.6914H225.489V23.6914Z" fill="white" />
      <path
        d="M224.599 36.5156C224.558 32.9364 223.735 30.0602 222.151 27.9723C220.464 25.7992 218.058 24.6914 215.013 24.6914C212.01 24.6914 209.624 25.7992 207.937 27.9723C207.793 28.1641 207.649 28.3558 207.526 28.5476V25.3305H205.489V48.8086H207.526V36.8778C207.526 33.5968 208.204 31.0403 209.521 29.2506C210.755 27.6315 212.606 26.8006 215.013 26.8006C217.42 26.8006 219.292 27.6315 220.547 29.2506C221.884 31.0403 222.542 33.5968 222.542 36.8778V48.8086H224.578L224.599 36.5156Z"
        fill="black" />
    </mask>
    <g mask="url(#mask5)">
      <path
        d="M224.599 36.5156C224.558 32.9364 223.735 30.0602 222.151 27.9723C220.464 25.7992 218.058 24.6914 215.013 24.6914C212.01 24.6914 209.624 25.7992 207.937 27.9723C207.793 28.1641 207.649 28.3558 207.526 28.5476V25.3305H205.489V48.8086H207.526V36.8778C207.526 33.5968 208.204 31.0403 209.521 29.2506C210.755 27.6315 212.606 26.8006 215.013 26.8006C217.42 26.8006 219.292 27.6315 220.547 29.2506C221.884 31.0403 222.542 33.5968 222.542 36.8778V48.8086H224.578L224.599 36.5156Z"
        fill="#121212" />
      <path
        d="M224.599 36.5156C224.558 32.9364 223.735 30.0602 222.151 27.9723C220.464 25.7992 218.058 24.6914 215.013 24.6914C212.01 24.6914 209.624 25.7992 207.937 27.9723C207.793 28.1641 207.649 28.3558 207.526 28.5476V25.3305H205.489V48.8086H207.526V36.8778C207.526 33.5968 208.204 31.0403 209.521 29.2506C210.755 27.6315 212.606 26.8006 215.013 26.8006C217.42 26.8006 219.292 27.6315 220.547 29.2506C221.884 31.0403 222.542 33.5968 222.542 36.8778V48.8086H224.578L224.599 36.5156Z"
        stroke="#121212" stroke-width="0.4" />
    </g>
    <mask id="mask6" style="mask-type:alpha" maskUnits="userSpaceOnUse" x="124" y="23" width="30"
      height="27">
      <path d="M153.923 23.6484H124.923V49.6484H153.923V23.6484Z" fill="white" />
      <path
        d="M153.611 36.7496C153.611 34.0865 153.241 29.2289 150.669 26.5232C149.476 25.2875 147.975 24.6484 146.206 24.6484C144.416 24.6484 142.914 25.2875 141.701 26.5658C140.898 27.3967 140.261 28.5046 139.767 29.8681C139.273 28.4833 138.636 27.3754 137.813 26.5232C136.62 25.2875 135.118 24.6484 133.349 24.6484C131.56 24.6484 130.058 25.2875 128.844 26.5658C128.515 26.9067 128.227 27.2902 127.96 27.7163V25.3088H125.923V48.7869H127.96V34.9174C128.083 33.1277 128.536 29.8468 130.284 28.0146C131.107 27.1411 132.115 26.715 133.349 26.715C134.583 26.715 135.591 27.1198 136.414 27.972C137.751 29.3781 138.615 32.1477 138.759 35.5565V48.7656H140.796V35.1304C140.878 33.6391 141.269 29.9533 143.12 27.9933C143.943 27.1198 144.951 26.6937 146.185 26.6937C147.419 26.6937 148.427 27.0985 149.25 27.9506C150.546 29.2929 151.369 31.8281 151.574 35.0452V48.7443H153.611V36.7922V36.7496Z"
        fill="black" />
    </mask>
    <g mask="url(#mask6)">
      <path
        d="M153.611 36.7496C153.611 34.0865 153.241 29.2289 150.669 26.5232C149.476 25.2875 147.975 24.6484 146.206 24.6484C144.416 24.6484 142.914 25.2875 141.701 26.5658C140.898 27.3967 140.261 28.5046 139.767 29.8681C139.273 28.4833 138.636 27.3754 137.813 26.5232C136.62 25.2875 135.118 24.6484 133.349 24.6484C131.56 24.6484 130.058 25.2875 128.844 26.5658C128.515 26.9067 128.227 27.2902 127.96 27.7163V25.3088H125.923V48.7869H127.96V34.9174C128.083 33.1277 128.536 29.8468 130.284 28.0146C131.107 27.1411 132.115 26.715 133.349 26.715C134.583 26.715 135.591 27.1198 136.414 27.972C137.751 29.3781 138.615 32.1477 138.759 35.5565V48.7656H140.796V35.1304C140.878 33.6391 141.269 29.9533 143.12 27.9933C143.943 27.1198 144.951 26.6937 146.185 26.6937C147.419 26.6937 148.427 27.0985 149.25 27.9506C150.546 29.2929 151.369 31.8281 151.574 35.0452V48.7443H153.611V36.7922V36.7496Z"
        fill="#121212" />
      <path
        d="M153.611 36.7496C153.611 34.0865 153.241 29.2289 150.669 26.5232C149.476 25.2875 147.975 24.6484 146.206 24.6484C144.416 24.6484 142.914 25.2875 141.701 26.5658C140.898 27.3967 140.261 28.5046 139.767 29.8681C139.273 28.4833 138.636 27.3754 137.813 26.5232C136.62 25.2875 135.118 24.6484 133.349 24.6484C131.56 24.6484 130.058 25.2875 128.844 26.5658C128.515 26.9067 128.227 27.2902 127.96 27.7163V25.3088H125.923V48.7869H127.96V34.9174C128.083 33.1277 128.536 29.8468 130.284 28.0146C131.107 27.1411 132.115 26.715 133.349 26.715C134.583 26.715 135.591 27.1198 136.414 27.972C137.751 29.3781 138.615 32.1477 138.759 35.5565V48.7656H140.796V35.1304C140.878 33.6391 141.269 29.9533 143.12 27.9933C143.943 27.1198 144.951 26.6937 146.185 26.6937C147.419 26.6937 148.427 27.0985 149.25 27.9506C150.546 29.2929 151.369 31.8281 151.574 35.0452V48.7443H153.611V36.7922V36.7496Z"
        stroke="#121212" stroke-width="0.4" />
    </g>
  </g>
  <defs>
    <clipPath id="clip0">
      <rect width="225" height="50" fill="white" />
    </clipPath>
  </defs>
</svg>