<svg width="96" height="31" viewBox="0 0 96 31" fill="none" xmlns="http://www.w3.org/2000/svg"><path fill-rule="evenodd" clip-rule="evenodd" d="M70.1905 24.0339C71.8827 24.0339 74.5576 23.3088 74.5576 23.3088L73.6296 19.5159C69.9721 20.3526 69.6992 18.6235 69.6992 17.6753C69.6992 17.6753 69.6992 11.3725 69.6992 10.6474H73.7388V6.63147H69.6992L69.6446 1.5H65.2774L65.2229 6.63147H63.476V10.5916H65.2229V18.3446C65.2229 21.5797 67.5702 24.0339 70.1905 24.0339ZM31.1593 19.739C28.1569 19.739 26.4646 17.2849 26.4646 15.1096C26.4646 12.6554 28.3752 10.4801 31.1593 10.4801C33.9433 10.4801 35.9085 12.5438 35.9085 15.1096C35.8539 17.7311 33.725 19.739 31.1593 19.739ZM31.4868 6.12948C29.74 6.12948 28.1569 6.63147 26.7921 7.46813V6.63147H22.3704V29.5H26.7921V22.6394C28.1569 23.4761 29.74 23.9781 31.4868 23.9781C36.3452 23.9781 40.3302 19.9622 40.3302 15.0538C40.3302 10.1454 36.3452 6.12948 31.4868 6.12948ZM20.7328 23.5319H15.2738L11.6164 18.512L7.95891 23.5319H2.5L8.88692 14.7749L2.93671 6.63147H8.39562L11.6164 11.0378L14.8371 6.63147H20.296L14.3458 14.7749L20.7328 23.5319ZM46.6626 15.0538C46.6626 17.6195 48.737 19.6833 51.248 19.6833C53.7591 19.6833 55.8335 17.6195 55.8335 15.0538C55.8335 12.488 53.7591 10.4243 51.248 10.4243C48.6824 10.4243 46.6626 12.488 46.6626 15.0538ZM55.9973 7.74701V6.63147H60.419V23.5319H55.9973V22.4163C54.578 23.4203 52.8311 24.0339 50.9751 24.0339C46.1167 24.0339 42.1863 20.0179 42.1863 15.1096C42.1863 10.1454 46.1167 6.18526 50.9751 6.18526C52.8311 6.12948 54.578 6.74303 55.9973 7.74701ZM80.5624 13.1016C81.272 11.5398 82.8551 10.4243 84.7112 10.4243C86.5126 10.4243 88.0957 11.4841 88.8599 13.1016H80.5624ZM93.3362 16.8386C93.4454 16.2809 93.5 15.6673 93.5 15.0538C93.5 10.0896 89.5696 6.12948 84.7112 6.12948C79.8527 6.12948 75.9223 10.1454 75.9223 15.0538C75.9223 20.0179 79.8527 23.9781 84.7112 23.9781C88.2594 23.9781 91.371 21.8028 92.7358 18.7351H87.4952C86.731 19.3486 85.7484 19.6833 84.7112 19.6833C82.8005 19.6833 81.1629 18.512 80.4532 16.7829H88.9145L93.3362 16.8386Z" fill="white"/></svg>